<?xml version="1.0" encoding="utf-8"?>
<!-- Generator: Adobe Illustrator 27.9.0, SVG Export Plug-In . SVG Version: 6.00 Build 0)  -->
<svg version="1.1" id="Layer_1" xmlns="http://www.w3.org/2000/svg" xmlns:xlink="http://www.w3.org/1999/xlink" x="0px" y="0px"
	 viewBox="0 0 55 55" style="enable-background:new 0 0 55 55;" xml:space="preserve">
<style type="text/css">
	.st0{fill:#00B5C0;}
	.st1{fill:#FFFFFF;}
	.st2{fill:#FFDC00;}
</style>
<g id="Group_1000001836">
	<g id="Group_1000001835">
		<g id="Group_33998">
			<path id="Path_5" class="st0" d="M25.2,33.7C25.1,33.8,25,34,25,34.2v10.1c0,0,0,0.9,0.9,0.9h4.3c0.9,0,0.9-0.9,0.9-0.9V27.5
				c0-0.3,0-0.3,0.1,0l9.1,16.9c0.3,0.6,0.5,0.9,0.9,0.9h4.3c0,0,0.9,0,0.9-0.9V16.6c0,0,0-0.9-0.9-0.9h-4.3c0,0-0.9,0-0.9,0.9v16.5
				c0,0,0,0.9-0.6,0l-5.8-10.6c-0.1-0.2-0.3-0.3-0.4-0.4c-0.2-0.1-0.4-0.2-0.6-0.2c-0.2,0-0.4,0-0.6,0.2c-0.2,0.1-0.3,0.3-0.5,0.4
				L25.2,33.7z"/>
			<path id="Path_2" class="st0" d="M22.5,39H9.3c0,0-0.9,0-0.9-0.9V10.3c0-0.9,0.9-0.9,0.9-0.9h13.9c0,0,5.2,0,5.2,5v5.3
				c0,0,0,4.4-4.6,4.4c0,0,4.6,0,4.6,4.4L22.5,39z"/>
			<path id="Rectangle_5068" class="st1" d="M14.2,14.2H20c1.4,0,2.6,1.7,2.6,3.7s-1.1,3.7-2.6,3.7h-5.8V14.2z"/>
			<path id="Rectangle_5072" class="st1" d="M14.2,26.9H20c1.4,0,2.6,1.7,2.6,3.7s-1.1,3.7-2.6,3.7h-5.8V26.9z"/>
			<g id="Group_2521">
				<path id="path3703" class="st2" d="M26.8,0C55.6,21.2,8,35.6,28.3,55C3.5,33.4,48.4,21.8,26.8,0z"/>
			</g>
		</g>
	</g>
</g>
</svg>
